HIERARCHY
ROOT Hips
{
	OFFSET -29.392864 -30.364742 87.758667
	CHANNELS 6 Xposition Yposition Zposition Zrotation Yrotation Xrotation
	JOINT Spine
	{
		OFFSET 0.000000 2.080109 8.814247
		CHANNELS 6 Xposition Yposition Zposition Zrotation Yrotation Xrotation
		JOINT Spine1
		{
			OFFSET 0.000000 0.000000 8.844139
			CHANNELS 6 Xposition Yposition Zposition Zrotation Yrotation Xrotation
			JOINT Spine2
			{
				OFFSET 0.000000 0.000002 11.682266
				CHANNELS 6 Xposition Yposition Zposition Zrotation Yrotation Xrotation
				JOINT Spine3
				{
					OFFSET 0.000000 0.000000 11.746704
					CHANNELS 6 Xposition Yposition Zposition Zrotation Yrotation Xrotation
					JOINT Neck
					{
						OFFSET 0.000000 0.000002 17.658264
						CHANNELS 6 Xposition Yposition Zposition Zrotation Yrotation Xrotation
						JOINT Neck1
						{
							OFFSET 0.000000 0.000000 5.101517
							CHANNELS 6 Xposition Yposition Zposition Zrotation Yrotation Xrotation
							JOINT Head
							{
								OFFSET 0.000000 0.000000 5.101517
								CHANNELS 6 Xposition Yposition Zposition Zrotation Yrotation Xrotation
								JOINT HeadEnd
								{
									OFFSET 0.000000 0.000002 11.655090
									CHANNELS 6 Xposition Yposition Zposition Zrotation Yrotation Xrotation
									End Site
									{
										OFFSET 0.000000 0.000000 0.100006
									}
								}
							}
						}
					}
					JOINT RightShoulder
					{
						OFFSET -2.625389 0.000002 11.175217
						CHANNELS 6 Xposition Yposition Zposition Zrotation Yrotation Xrotation
						JOINT RightArm
						{
							OFFSET 0.000000 0.000000 10.434723
							CHANNELS 6 Xposition Yposition Zposition Zrotation Yrotation Xrotation
							JOINT RightForeArm
							{
								OFFSET 0.000000 0.000002 29.628418
								CHANNELS 6 Xposition Yposition Zposition Zrotation Yrotation Xrotation
								JOINT RightHand
								{
									OFFSET 0.000000 0.000002 22.857605
									CHANNELS 6 Xposition Yposition Zposition Zrotation Yrotation Xrotation
									JOINT RightHandThumb1
									{
										OFFSET -2.867321 -2.944290 3.959564
										CHANNELS 6 Xposition Yposition Zposition Zrotation Yrotation Xrotation
										JOINT RightHandThumb2
										{
											OFFSET 0.000000 0.000000 3.350403
											CHANNELS 6 Xposition Yposition Zposition Zrotation Yrotation Xrotation
											JOINT RightHandThumb3
											{
												OFFSET 0.000000 0.000000 3.756516
												CHANNELS 6 Xposition Yposition Zposition Zrotation Yrotation Xrotation
												JOINT RightHandThumb4
												{
													OFFSET 0.000000 0.000002 3.147339
													CHANNELS 6 Xposition Yposition Zposition Zrotation Yrotation Xrotation
													End Site
													{
														OFFSET 0.000000 0.000000 0.100006
													}
												}
											}
										}
									}
									JOINT RightHandIndex1
									{
										OFFSET -0.086754 -2.345280 10.030899
										CHANNELS 6 Xposition Yposition Zposition Zrotation Yrotation Xrotation
										JOINT RightHandIndex2
										{
											OFFSET 0.000000 0.000002 4.061096
											CHANNELS 6 Xposition Yposition Zposition Zrotation Yrotation Xrotation
											JOINT RightHandIndex3
											{
												OFFSET 0.000000 0.000000 3.248871
												CHANNELS 6 Xposition Yposition Zposition Zrotation Yrotation Xrotation
												JOINT RightHandIndex4
												{
													OFFSET 0.000000 0.000000 2.639709
													CHANNELS 6 Xposition Yposition Zposition Zrotation Yrotation Xrotation
													End Site
													{
														OFFSET 0.000000 0.000000 0.100006
													}
												}
											}
										}
									}
									JOINT RightHandMiddle1
									{
										OFFSET 0.104101 -0.006767 9.502945
										CHANNELS 6 Xposition Yposition Zposition Zrotation Yrotation Xrotation
										JOINT RightHandMiddle2
										{
											OFFSET 0.000000 0.000002 4.568726
											CHANNELS 6 Xposition Yposition Zposition Zrotation Yrotation Xrotation
											JOINT RightHandMiddle3
											{
												OFFSET 0.000000 0.000000 3.654984
												CHANNELS 6 Xposition Yposition Zposition Zrotation Yrotation Xrotation
												JOINT RightHandMiddle4
												{
													OFFSET 0.000000 0.000000 2.741241
													CHANNELS 6 Xposition Yposition Zposition Zrotation Yrotation Xrotation
													End Site
													{
														OFFSET 0.000000 0.000000 0.100006
													}
												}
											}
										}
									}
									JOINT RightHandRing1
									{
										OFFSET 0.086752 2.267443 8.921707
										CHANNELS 6 Xposition Yposition Zposition Zrotation Yrotation Xrotation
										JOINT RightHandRing2
										{
											OFFSET 0.000000 0.000002 4.061096
											CHANNELS 6 Xposition Yposition Zposition Zrotation Yrotation Xrotation
											JOINT RightHandRing3
											{
												OFFSET 0.000000 0.000000 3.654984
												CHANNELS 6 Xposition Yposition Zposition Zrotation Yrotation Xrotation
												JOINT RightHandRing4
												{
													OFFSET 0.000000 0.000000 2.741241
													CHANNELS 6 Xposition Yposition Zposition Zrotation Yrotation Xrotation
													End Site
													{
														OFFSET 0.000000 0.000000 0.100006
													}
												}
											}
										}
									}
									JOINT RightHandPinky1
									{
										OFFSET -0.173504 4.467199 7.976990
										CHANNELS 6 Xposition Yposition Zposition Zrotation Yrotation Xrotation
										JOINT RightHandPinky2
										{
											OFFSET 0.000000 0.000000 3.350403
											CHANNELS 6 Xposition Yposition Zposition Zrotation Yrotation Xrotation
											JOINT RightHandPinky3
											{
												OFFSET 0.000000 0.000002 2.842758
												CHANNELS 6 Xposition Yposition Zposition Zrotation Yrotation Xrotation
												JOINT RightHandPinky4
												{
													OFFSET 0.000000 0.000000 2.639709
													CHANNELS 6 Xposition Yposition Zposition Zrotation Yrotation Xrotation
													End Site
													{
														OFFSET 0.000000 0.000000 0.100006
													}
												}
											}
										}
									}
									JOINT RightForeArmEnd
									{
										OFFSET 0.000000 0.000000 0.000000
										CHANNELS 6 Xposition Yposition Zposition Zrotation Yrotation Xrotation
										End Site
										{
											OFFSET 0.000000 0.000000 0.100006
										}
									}
								}
								JOINT RightArmEnd
								{
									OFFSET 0.000000 0.000000 0.000000
									CHANNELS 6 Xposition Yposition Zposition Zrotation Yrotation Xrotation
									End Site
									{
										OFFSET 0.000000 0.000000 0.100006
									}
								}
							}
						}
					}
					JOINT LeftShoulder
					{
						OFFSET 2.625389 0.000002 11.175217
						CHANNELS 6 Xposition Yposition Zposition Zrotation Yrotation Xrotation
						JOINT LeftArm
						{
							OFFSET 0.000000 0.000000 10.813629
							CHANNELS 6 Xposition Yposition Zposition Zrotation Yrotation Xrotation
							JOINT LeftForeArm
							{
								OFFSET 0.000000 0.000002 28.724777
								CHANNELS 6 Xposition Yposition Zposition Zrotation Yrotation Xrotation
								JOINT LeftHand
								{
									OFFSET 0.644384 0.328873 25.716171
									CHANNELS 6 Xposition Yposition Zposition Zrotation Yrotation Xrotation
									JOINT LeftHandThumb1
									{
										OFFSET 2.867323 -2.944292 3.959564
										CHANNELS 6 Xposition Yposition Zposition Zrotation Yrotation Xrotation
										JOINT LeftHandThumb2
										{
											OFFSET 0.000000 0.000000 3.350403
											CHANNELS 6 Xposition Yposition Zposition Zrotation Yrotation Xrotation
											JOINT LeftHandThumb3
											{
												OFFSET 0.000000 0.000002 3.756516
												CHANNELS 6 Xposition Yposition Zposition Zrotation Yrotation Xrotation
												JOINT LeftHandThumb4
												{
													OFFSET 0.000000 0.000000 3.100006
													CHANNELS 6 Xposition Yposition Zposition Zrotation Yrotation Xrotation
													End Site
													{
														OFFSET 0.000000 0.000000 0.100006
													}
												}
											}
										}
									}
									JOINT LeftHandIndex1
									{
										OFFSET 0.086752 -2.345278 10.030899
										CHANNELS 6 Xposition Yposition Zposition Zrotation Yrotation Xrotation
										JOINT LeftHandIndex2
										{
											OFFSET 0.000000 0.000000 4.061096
											CHANNELS 6 Xposition Yposition Zposition Zrotation Yrotation Xrotation
											JOINT LeftHandIndex3
											{
												OFFSET 0.000000 0.000000 3.248871
												CHANNELS 6 Xposition Yposition Zposition Zrotation Yrotation Xrotation
												JOINT LeftHandIndex4
												{
													OFFSET 0.000000 0.000000 2.639709
													CHANNELS 6 Xposition Yposition Zposition Zrotation Yrotation Xrotation
													End Site
													{
														OFFSET 0.000000 0.000000 0.100006
													}
												}
											}
										}
									}
									JOINT LeftHandMiddle1
									{
										OFFSET -0.104101 -0.006765 9.502945
										CHANNELS 6 Xposition Yposition Zposition Zrotation Yrotation Xrotation
										JOINT LeftHandMiddle2
										{
											OFFSET 0.000000 0.000000 4.568726
											CHANNELS 6 Xposition Yposition Zposition Zrotation Yrotation Xrotation
											JOINT LeftHandMiddle3
											{
												OFFSET 0.000000 0.000000 3.654984
												CHANNELS 6 Xposition Yposition Zposition Zrotation Yrotation Xrotation
												JOINT LeftHandMiddle4
												{
													OFFSET 0.000000 0.000000 2.741241
													CHANNELS 6 Xposition Yposition Zposition Zrotation Yrotation Xrotation
													End Site
													{
														OFFSET 0.000000 0.000000 0.100006
													}
												}
											}
										}
									}
									JOINT LeftHandRing1
									{
										OFFSET -0.086752 2.267443 8.921707
										CHANNELS 6 Xposition Yposition Zposition Zrotation Yrotation Xrotation
										JOINT LeftHandRing2
										{
											OFFSET 0.000000 0.000002 4.061096
											CHANNELS 6 Xposition Yposition Zposition Zrotation Yrotation Xrotation
											JOINT LeftHandRing3
											{
												OFFSET 0.000000 0.000000 3.654984
												CHANNELS 6 Xposition Yposition Zposition Zrotation Yrotation Xrotation
												JOINT LeftHandRing4
												{
													OFFSET 0.000000 0.000000 2.741241
													CHANNELS 6 Xposition Yposition Zposition Zrotation Yrotation Xrotation
													End Site
													{
														OFFSET 0.000000 0.000000 0.100006
													}
												}
											}
										}
									}
									JOINT LeftHandPinky1
									{
										OFFSET 0.173504 4.467199 7.976990
										CHANNELS 6 Xposition Yposition Zposition Zrotation Yrotation Xrotation
										JOINT LeftHandPinky2
										{
											OFFSET 0.000000 0.000002 3.350403
											CHANNELS 6 Xposition Yposition Zposition Zrotation Yrotation Xrotation
											JOINT LeftHandPinky3
											{
												OFFSET 0.000000 0.000000 2.842758
												CHANNELS 6 Xposition Yposition Zposition Zrotation Yrotation Xrotation
												JOINT LeftHandPinky4
												{
													OFFSET 0.000000 0.000000 2.639709
													CHANNELS 6 Xposition Yposition Zposition Zrotation Yrotation Xrotation
													End Site
													{
														OFFSET 0.000000 0.000000 0.100006
													}
												}
											}
										}
									}
									JOINT LeftForeArmEnd
									{
										OFFSET 0.000000 0.000000 0.000000
										CHANNELS 6 Xposition Yposition Zposition Zrotation Yrotation Xrotation
										End Site
										{
											OFFSET 0.000000 0.000000 0.100006
										}
									}
								}
								JOINT LeftArmEnd
								{
									OFFSET 0.000000 0.000000 0.000000
									CHANNELS 6 Xposition Yposition Zposition Zrotation Yrotation Xrotation
									End Site
									{
										OFFSET 0.000000 0.000000 0.100006
									}
								}
							}
						}
					}
				}
			}
		}
	}
	JOINT RightUpLeg
	{
		OFFSET -11.289944 0.000000 0.000000
		CHANNELS 6 Xposition Yposition Zposition Zrotation Yrotation Xrotation
		JOINT RightLeg
		{
			OFFSET 0.000000 -0.000002 -38.200321
			CHANNELS 6 Xposition Yposition Zposition Zrotation Yrotation Xrotation
			JOINT RightFoot
			{
				OFFSET 0.000000 -0.000004 -39.900856
				CHANNELS 6 Xposition Yposition Zposition Zrotation Yrotation Xrotation
				JOINT RightToeBase
				{
					OFFSET 0.000000 -15.261641 0.000002
					CHANNELS 6 Xposition Yposition Zposition Zrotation Yrotation Xrotation
					JOINT RightToeBaseEnd
					{
						OFFSET 0.000000 -7.370708 0.000000
						CHANNELS 6 Xposition Yposition Zposition Zrotation Yrotation Xrotation
						End Site
						{
							OFFSET 0.000000 0.000000 0.100000
						}
					}
				}
				JOINT RightLegEnd
				{
					OFFSET 0.000000 0.000000 0.000000
					CHANNELS 6 Xposition Yposition Zposition Zrotation Yrotation Xrotation
					End Site
					{
						OFFSET 0.000000 0.000000 0.100000
					}
				}
			}
			JOINT RightUpLegEnd
			{
				OFFSET 0.000000 0.000000 0.000000
				CHANNELS 6 Xposition Yposition Zposition Zrotation Yrotation Xrotation
				End Site
				{
					OFFSET 0.000000 0.000000 0.099998
				}
			}
		}
	}
	JOINT LeftUpLeg
	{
		OFFSET 11.315662 0.000000 0.000000
		CHANNELS 6 Xposition Yposition Zposition Zrotation Yrotation Xrotation
		JOINT LeftLeg
		{
			OFFSET 0.000000 -0.000002 -38.200321
			CHANNELS 6 Xposition Yposition Zposition Zrotation Yrotation Xrotation
			JOINT LeftFoot
			{
				OFFSET 0.000000 -0.000004 -39.900856
				CHANNELS 6 Xposition Yposition Zposition Zrotation Yrotation Xrotation
				JOINT LeftToeBase
				{
					OFFSET 0.000000 -15.261641 0.000002
					CHANNELS 6 Xposition Yposition Zposition Zrotation Yrotation Xrotation
					JOINT LeftToeBaseEnd
					{
						OFFSET 0.000000 -7.539997 0.000000
						CHANNELS 6 Xposition Yposition Zposition Zrotation Yrotation Xrotation
						End Site
						{
							OFFSET 0.000000 0.000000 0.100000
						}
					}
				}
				JOINT LeftLegEnd
				{
					OFFSET 0.000000 0.000000 0.000000
					CHANNELS 6 Xposition Yposition Zposition Zrotation Yrotation Xrotation
					End Site
					{
						OFFSET 0.000000 0.000000 0.100000
					}
				}
			}
			JOINT LeftUpLegEnd
			{
				OFFSET 0.000000 0.000000 0.000000
				CHANNELS 6 Xposition Yposition Zposition Zrotation Yrotation Xrotation
				End Site
				{
					OFFSET 0.000000 0.000000 0.099998
				}
			}
		}
	}
}
MOTION
Frames: 2
Frame Time: 0.016667
-4.897432 -14.644046 82.849617 2.291700 1.419902 1.420377 0.000000 2.080109 8.814257 -0.215407 -4.129885 8.811830 -0.000000 0.000003 8.844143 -1.835648 -4.871111 15.386287 0.000000 0.000000 11.682257 -0.440849 -1.894991 17.154164 0.000004 0.000000 11.746721 0.668914 0.204269 2.240906 -0.000001 0.000015 17.658264 5.137097 -11.663268 3.399113 -0.000001 -0.000009 5.101528 7.876633 2.771588 -9.360797 -0.000001 0.000000 5.101527 3.345991 0.583963 -16.978351 0.000001 0.000000 11.655089 0.000001 -0.000002 0.000000 -2.625386 0.000012 11.175213 14.651111 -82.520966 -0.230426 0.000008 0.000013 10.434729 -70.521826 -5.136371 40.425407 -0.000007 -0.000013 29.628424 3.156332 1.057209 71.838700 -0.000002 0.000007 22.857563 -26.646083 19.770051 20.012760 -2.867315 -2.944282 3.959584 33.272584 -11.458690 61.322238 -0.000001 -0.000004 3.350410 -0.293524 0.290474 -0.590517 -0.000001 0.000011 3.756507 -0.203590 0.202190 -0.409452 0.000000 -0.000003 3.147336 0.000001 -0.000002 0.000002 -0.086758 -2.345284 10.030919 -1.864133 40.764225 27.997364 -0.000004 -0.000004 4.061104 1.303018 -0.000079 -0.000354 -0.000004 0.000009 3.248879 0.754984 0.000004 0.037236 -0.000002 0.000003 2.639709 0.000001 -0.000000 -0.000000 0.104121 -0.006771 9.502986 2.642207 33.955507 23.405740 0.000001 -0.000005 4.568730 1.291198 -0.000052 -0.001706 0.000001 -0.000005 3.655003 0.849087 0.000000 0.002309 0.000000 -0.000000 2.741242 -0.000000 0.000000 -0.000000 0.086766 2.267446 8.921728 10.128481 26.300193 16.922258 0.000001 0.000002 4.061112 -1.718085 -0.000146 0.000526 0.000001 -0.000016 3.654999 -0.573524 -0.000012 -0.064668 0.000002 -0.000002 2.741242 0.000001 0.000001 0.000000 -0.173511 4.467196 7.977011 18.073346 21.034263 8.118052 -0.000001 0.000001 3.350399 -2.668617 -0.000012 -0.000302 0.000000 0.000010 2.842775 -1.010339 -0.000002 0.008693 0.000002 0.000003 2.639694 0.000000 0.000000 0.000001 -0.000007 -0.000001 0.000015 -0.000002 -0.000001 -0.000001 0.000001 -0.000010 -0.000031 0.000001 -0.000001 0.000000 2.625390 0.000008 11.175220 -15.087859 84.574879 -0.725340 -0.000006 -0.000005 10.813631 67.790673 -1.843350 40.861443 0.000001 0.000008 28.724764 -2.453607 -0.470173 73.569579 0.644384 0.328878 25.716171 36.269612 -21.241446 15.008122 2.867323 -2.944276 3.959545 -32.633517 12.964002 58.544803 0.000004 -0.000003 3.350409 3.390237 -3.021785 -6.580525 -0.000004 0.000010 3.756509 2.317146 -2.140139 -4.549756 0.000004 -0.000007 3.100006 0.000002 -0.000000 -0.000000 0.086746 -2.345273 10.030903 -20.138135 -40.168698 26.574849 -0.000001 -0.000018 4.061107 0.517903 0.000059 -0.000114 -0.000001 -0.000005 3.248864 0.016731 -0.000007 0.000007 0.000000 -0.000004 2.639709 0.000004 0.000001 0.000001 -0.104101 -0.006760 9.502935 -12.087151 -36.839202 18.893616 0.000008 -0.000008 4.568731 0.550035 0.000098 -0.000075 0.000000 0.000000 3.655006 0.045968 -0.000048 0.000034 0.000002 0.000007 2.741242 -0.000003 0.000001 0.000000 -0.086763 2.267448 8.921713 -0.602860 -30.215445 10.614789 -0.000003 -0.000003 4.061106 -1.021190 -0.034205 0.000575 0.000004 0.000009 3.654989 -0.016532 0.018008 -0.003658 0.000003 -0.000009 2.741242 0.000002 0.000001 0.000000 0.173501 4.467208 7.976969 9.934094 -23.406109 4.099177 0.000001 0.000007 3.350402 -2.013945 -0.000000 -0.000034 -0.000001 0.000001 2.842782 -0.011826 -0.000000 0.000055 0.000016 -0.000011 2.639710 0.000002 -0.000000 -0.000001 0.000001 0.000006 -0.000016 -0.000002 0.000001 0.000003 0.000003 0.000002 -0.000012 0.000001 0.000003 -0.000003 -11.289948 0.000002 0.000004 -6.077189 -1.899125 -22.205251 -0.000002 -0.000001 -38.200321 -0.229396 0.214563 43.086339 0.000003 -0.000004 -39.900852 -12.964835 2.661239 6.240236 -0.000000 -15.261639 0.000000 -0.558692 -1.072924 -28.882766 0.000002 -7.370713 0.000001 0.000001 0.000001 -0.000000 0.000000 -0.000001 0.000000 0.000001 0.000000 0.000000 0.000000 0.000002 -0.000003 0.000000 -0.000000 -0.000001 11.315663 0.000003 0.000007 20.360181 -8.813852 -23.457265 -0.000004 -0.000003 -38.200325 0.306673 -0.294091 43.799503 0.000001 -0.000003 -39.900848 11.281087 6.489858 9.084992 0.000001 -15.261632 -0.000001 -0.972940 1.530059 -28.622705 -0.000002 -7.539997 0.000000 -0.000000 0.000000 -0.000000 0.000001 -0.000000 -0.000001 -0.000005 0.000002 -0.000002 -0.000002 -0.000001 0.000004 0.000003 -0.000000 0.000000 
-4.941193 -14.743092 82.916420 2.252669 1.237295 1.132542 0.000001 2.080109 8.814254 -0.194093 -4.164699 8.772735 0.000000 0.000000 8.844149 -1.845609 -4.925392 15.469665 0.000001 0.000006 11.682268 -0.441017 -1.853254 17.145124 0.000000 -0.000010 11.746692 0.689770 0.220461 2.114946 -0.000001 0.000003 17.658281 5.411207 -11.492365 2.824041 -0.000005 -0.000002 5.101539 8.198107 2.793977 -9.815893 -0.000001 -0.000008 5.101535 3.331444 0.565292 -16.995106 -0.000012 0.000004 11.655090 0.000001 0.000001 0.000000 -2.625397 0.000000 11.175220 14.689618 -82.615421 -0.230853 0.000004 -0.000005 10.434728 -70.562882 -5.352984 40.337195 0.000004 -0.000011 29.628416 3.182340 1.026196 71.866485 -0.000005 0.000011 22.857571 -26.602076 19.643489 20.083946 -2.867313 -2.944300 3.959577 33.272607 -11.458690 61.322033 -0.000005 0.000005 3.350382 -0.293527 0.290477 -0.590518 0.000001 0.000005 3.756508 -0.203586 0.202175 -0.409611 -0.000009 0.000006 3.147338 -0.000002 -0.000001 0.000000 -0.086759 -2.345288 10.030923 -1.895499 40.635541 27.822644 0.000000 0.000007 4.061093 1.304386 -0.000037 -0.000348 -0.000000 0.000008 3.248906 0.756266 0.000003 0.037471 -0.000006 0.000006 2.639710 -0.000001 -0.000000 -0.000001 0.104117 -0.006768 9.502988 2.613472 33.830070 23.240004 0.000001 -0.000000 4.568730 1.292572 -0.000053 -0.001707 0.000001 0.000010 3.654987 0.850373 -0.000001 0.002310 0.000006 0.000010 2.741241 0.000000 -0.000000 0.000000 0.086760 2.267439 8.921720 10.095080 26.171852 16.735767 0.000003 0.000002 4.061091 -1.719564 -0.000127 0.000528 -0.000008 0.000001 3.655003 -0.574698 -0.000014 -0.065082 0.000004 -0.000001 2.741241 -0.000002 0.000000 0.000001 -0.173508 4.467194 7.976993 18.031590 20.920400 7.890568 0.000000 0.000006 3.350437 -2.668759 -0.000000 -0.000303 0.000003 0.000006 2.842777 -1.010536 0.000003 0.008402 -0.000010 0.000004 2.639710 -0.000000 0.000001 0.000000 -0.000001 -0.000001 -0.000002 0.000002 -0.000001 0.000003 -0.000002 0.000011 -0.000000 -0.000001 0.000000 0.000001 2.625383 -0.000001 11.175232 -15.106097 84.753126 -0.753714 0.000001 -0.000005 10.813631 67.290102 -1.221132 40.382059 0.000002 0.000017 28.724754 -3.051690 -0.436879 74.115312 0.644388 0.328878 25.716154 39.613236 -20.330154 14.342238 2.867329 -2.944278 3.959561 -32.691331 12.809317 58.820544 -0.000002 -0.000006 3.350389 3.067644 -2.763461 -5.974306 0.000005 -0.000008 3.756522 2.099458 -1.953298 -4.132498 0.000003 -0.000001 3.100007 0.000000 0.000001 -0.000000 0.086745 -2.345284 10.030919 -19.913125 -39.699249 26.039698 0.000003 -0.000004 4.061090 0.516251 0.000033 -0.000105 0.000003 0.000006 3.248868 0.015205 0.000029 0.000003 -0.000005 -0.000002 2.639709 0.000001 0.000000 0.000001 -0.104103 -0.006773 9.502966 -11.804425 -35.995592 18.463666 -0.000003 0.000010 4.568721 0.547043 0.000082 -0.000071 -0.000008 -0.000001 3.654991 0.042979 -0.000049 0.000032 -0.000000 -0.000004 2.741241 -0.000000 0.000000 -0.000000 -0.086757 2.267437 8.921749 -0.337653 -28.747651 10.561066 0.000005 0.000001 4.061095 -1.019521 -0.000004 -0.000034 0.000003 -0.000003 3.654992 -0.015235 0.000004 -0.003486 -0.000005 -0.000007 2.741258 0.000002 0.000001 -0.000001 0.173501 4.467202 7.976996 10.125399 -21.597767 4.436864 0.000007 0.000001 3.350385 -2.012704 -0.000001 -0.000033 0.000005 0.000002 2.842754 -0.010770 0.000000 0.000047 0.000008 -0.000005 2.639709 0.000003 -0.000001 0.000001 -0.000000 0.000001 0.000017 0.000001 0.000003 0.000000 0.000010 0.000005 -0.000016 0.000001 -0.000000 0.000000 -11.289948 -0.000001 -0.000008 -6.015471 -1.721646 -21.708851 -0.000006 -0.000004 -38.200306 -0.246415 0.228250 42.808740 -0.000003 -0.000003 -39.900856 -12.999419 2.687368 6.140790 -0.000001 -15.261636 0.000002 -0.570694 -1.023960 -28.759618 0.000000 -7.370709 0.000001 0.000001 0.000001 0.000000 -0.000000 0.000004 0.000001 0.000000 -0.000000 -0.000000 -0.000000 -0.000000 -0.000001 0.000000 -0.000000 0.000002 11.315660 0.000002 0.000002 20.356761 -8.797527 -22.938996 -0.000005 -0.000008 -38.200314 0.336250 -0.319304 43.519203 0.000001 -0.000001 -39.900852 11.216799 6.516111 9.361569 -0.000000 -15.261637 0.000003 -0.961872 1.500701 -28.664142 -0.000001 -7.539997 0.000001 0.000000 0.000000 -0.000000 0.000003 0.000000 0.000000 -0.000005 0.000001 -0.000001 -0.000002 0.000000 0.000003 -0.000001 -0.000000 0.000001 
